<svg width="158" height="81" viewBox="0 0 158 81" fill="none" xmlns="http://www.w3.org/2000/svg">
<path d="M54.2221 51.6188C52.7878 51.6188 51.5204 51.3199 50.4124 50.7147C49.3045 50.1169 48.4393 49.2875 47.8094 48.2413C47.1796 47.1952 46.8684 45.9922 46.8684 44.6322C46.8684 43.5487 47.043 42.5698 47.3996 41.6806C47.7563 40.7914 48.242 40.0218 48.8719 39.3642C49.5018 38.7067 50.2531 38.206 51.1334 37.8473C52.0137 37.4887 52.9623 37.3093 53.9868 37.3093C54.8899 37.3093 55.7323 37.4812 56.514 37.8174C57.2956 38.1537 57.971 38.6245 58.5478 39.2148C59.1245 39.8051 59.5647 40.5075 59.8759 41.322C60.187 42.129 60.3312 43.0182 60.316 43.9746L60.2932 45.1254H48.8795L48.2648 42.9808H57.9103L57.5157 43.4292V42.8015C57.4626 42.2261 57.2653 41.7105 56.9313 41.2622C56.5974 40.8064 56.1724 40.4477 55.6564 40.1862C55.1404 39.9246 54.5864 39.7976 53.9792 39.7976C53.023 39.7976 52.2186 39.9769 51.566 40.3356C50.9133 40.6943 50.4124 41.2174 50.0785 41.9048C49.7446 42.5923 49.5777 43.4441 49.5777 44.4529C49.5777 45.4093 49.7826 46.2462 50.1848 46.9486C50.5946 47.651 51.1713 48.1965 51.9151 48.5851C52.6588 48.9662 53.5163 49.1604 54.4953 49.1604C55.1859 49.1604 55.8309 49.0484 56.4229 48.8242C57.0148 48.6 57.6599 48.189 58.3505 47.5912L59.7317 49.5042C59.3067 49.9226 58.7906 50.2888 58.1759 50.6026C57.5688 50.9164 56.9162 51.163 56.2408 51.3498C55.5426 51.5217 54.8747 51.6188 54.2221 51.6188Z" fill="black"/>
<path d="M68.641 51.6188C67.4875 51.6188 66.4402 51.305 65.4916 50.6773C64.543 50.0497 63.7841 49.1978 63.2225 48.1143C62.6534 47.0308 62.3726 45.8128 62.3726 44.4529C62.3726 43.078 62.6609 41.8525 63.2377 40.7765C63.8145 39.708 64.5885 38.8636 65.5751 38.2509C66.5617 37.6381 67.662 37.3392 68.8839 37.3392C69.6124 37.3392 70.2726 37.4438 70.8722 37.6531C71.4717 37.8623 72.0029 38.1537 72.4507 38.5273C72.906 38.9009 73.2703 39.3343 73.5662 39.82C73.8546 40.3057 74.0368 40.8288 74.1126 41.3892L73.5055 41.18V37.6232H76.2679V51.3573H73.5055V48.0844L74.143 47.8976C74.0368 48.3684 73.8167 48.8242 73.4904 49.2725C73.164 49.7209 72.7466 50.1169 72.2458 50.4606C71.7373 50.8118 71.1833 51.0883 70.5686 51.2975C69.9539 51.5142 69.3164 51.6188 68.641 51.6188ZM69.362 49.1306C70.1968 49.1306 70.9329 48.9288 71.5628 48.5328C72.2002 48.1293 72.7011 47.5763 73.0654 46.8739C73.4296 46.1715 73.6118 45.3645 73.6118 44.4529C73.6118 43.5637 73.4296 42.7716 73.0654 42.0767C72.7011 41.3818 72.2002 40.8288 71.5628 40.4328C70.9253 40.0293 70.1892 39.835 69.362 39.835C68.55 39.835 67.829 40.0367 67.1991 40.4328C66.5692 40.8363 66.076 41.3818 65.7117 42.0767C65.3474 42.7716 65.1653 43.5712 65.1653 44.4529C65.1653 45.357 65.3474 46.164 65.7117 46.8739C66.076 47.5838 66.5692 48.1367 67.1991 48.5328C67.8214 48.9288 68.5424 49.1306 69.362 49.1306Z" fill="black"/>
<path d="M86.0121 51.6188C84.722 51.6188 83.5609 51.305 82.544 50.6773C81.5271 50.0497 80.7226 49.1978 80.1307 48.1143C79.5388 47.0308 79.2428 45.8203 79.2428 44.4828C79.2428 43.1378 79.5388 41.9272 80.1307 40.8438C80.7226 39.7603 81.5271 38.9084 82.544 38.2807C83.5609 37.6531 84.7144 37.3392 86.0121 37.3392C87.2491 37.3392 88.3799 37.5858 89.3968 38.0865C90.4137 38.5871 91.1878 39.2596 91.719 40.1115L90.2012 41.9422C89.9204 41.5387 89.5562 41.1725 89.116 40.8438C88.6758 40.515 88.2053 40.2534 87.7121 40.0592C87.2188 39.8649 86.7407 39.7752 86.2778 39.7752C85.4278 39.7752 84.6689 39.977 84.0087 40.3879C83.3408 40.7989 82.8172 41.3593 82.4302 42.0767C82.0431 42.794 81.8458 43.5936 81.8458 44.4828C81.8458 45.372 82.0507 46.1715 82.4605 46.8739C82.8703 47.5838 83.4091 48.1442 84.077 48.5627C84.7524 48.9811 85.4961 49.1903 86.3081 49.1903C86.7862 49.1903 87.2491 49.1156 87.7045 48.9512C88.1522 48.7943 88.5924 48.5627 89.0174 48.2414C89.4423 47.9275 89.8445 47.5464 90.2164 47.0906L91.7342 48.9213C91.165 49.7059 90.3606 50.3485 89.3057 50.8567C88.2433 51.3648 87.1429 51.6188 86.0121 51.6188Z" fill="black"/>
<path d="M94.2993 51.3574V32.004H97.0313V40.4478L96.5532 40.7616C96.7278 40.1489 97.0769 39.5884 97.5853 39.0729C98.1014 38.5573 98.7085 38.1388 99.4219 37.8175C100.128 37.4962 100.856 37.3318 101.6 37.3318C102.662 37.3318 103.55 37.5335 104.256 37.9445C104.962 38.3555 105.493 38.9757 105.85 39.8126C106.206 40.6495 106.381 41.7031 106.381 42.9734V51.3424H103.649V43.1677C103.649 42.3831 103.543 41.733 103.33 41.2174C103.118 40.7018 102.791 40.3282 102.344 40.0966C101.903 39.8574 101.349 39.7603 100.697 39.7977C100.166 39.7977 99.6799 39.8799 99.2397 40.0443C98.7996 40.2086 98.4125 40.4403 98.0862 40.7392C97.7599 41.0381 97.5018 41.3818 97.3121 41.7704C97.1224 42.1589 97.0313 42.5848 97.0313 43.0407V51.3574H95.6805C95.4528 51.3574 95.2176 51.3574 94.9899 51.3574C94.7622 51.3574 94.527 51.3574 94.2993 51.3574Z" fill="black"/>
<path d="M116.611 51.6188C115.176 51.6188 113.909 51.3199 112.801 50.7147C111.693 50.1169 110.828 49.2875 110.198 48.2413C109.568 47.1952 109.257 45.9922 109.257 44.6322C109.257 43.5487 109.432 42.5698 109.788 41.6806C110.145 40.7914 110.631 40.0218 111.261 39.3642C111.89 38.7067 112.642 38.206 113.522 37.8473C114.395 37.4887 115.351 37.3093 116.376 37.3093C117.279 37.3093 118.121 37.4812 118.895 37.8174C119.677 38.1537 120.352 38.6245 120.929 39.2148C121.506 39.8051 121.946 40.5075 122.257 41.322C122.568 42.129 122.712 43.0182 122.697 43.9746L122.674 45.1254H111.276L110.669 42.9808H120.307L119.912 43.4292V42.8015C119.859 42.2261 119.662 41.7105 119.328 41.2622C118.994 40.8064 118.569 40.4477 118.053 40.1862C117.537 39.9246 116.983 39.7976 116.383 39.7976C115.427 39.7976 114.622 39.9769 113.97 40.3356C113.317 40.6943 112.816 41.2174 112.482 41.9048C112.148 42.5923 111.982 43.4441 111.982 44.4529C111.982 45.4093 112.186 46.2462 112.589 46.9486C112.998 47.651 113.575 48.1965 114.319 48.5851C115.063 48.9662 115.92 49.1604 116.899 49.1604C117.59 49.1604 118.235 49.0484 118.827 48.8242C119.419 48.6 120.064 48.189 120.754 47.5912L122.136 49.5042C121.711 49.9226 121.194 50.2888 120.58 50.6026C119.973 50.9164 119.32 51.163 118.645 51.3498C117.931 51.5217 117.263 51.6188 116.611 51.6188Z" fill="black"/>
<path d="M125.672 51.3573V37.6232H128.434V41.9422L128.169 40.8961C128.366 40.231 128.692 39.6332 129.163 39.0878C129.633 38.5497 130.172 38.1238 130.787 37.81C131.402 37.4962 132.032 37.3392 132.684 37.3392C132.988 37.3392 133.276 37.3617 133.549 37.414C133.823 37.4663 134.043 37.526 134.202 37.6008L133.481 40.5299C133.269 40.4402 133.033 40.3655 132.775 40.3057C132.517 40.246 132.267 40.2161 132.016 40.2161C131.538 40.2161 131.083 40.3057 130.65 40.4926C130.218 40.6794 129.838 40.9259 129.512 41.2473C129.186 41.5686 128.92 41.9422 128.73 42.3756C128.533 42.8015 128.434 43.2723 128.434 43.7729V51.3573H125.672Z" fill="black"/>
<path d="M25.9609 34.4026C26.6667 35.105 26.5529 35.912 26.3783 36.734C26.3176 37.003 26.2873 37.272 26.2417 37.541C26.1962 37.81 26.0444 37.8847 25.8395 37.7203C24.3824 36.5472 22.8115 35.5085 21.5518 34.1187C20.9447 33.4462 20.4969 32.7064 20.4438 31.7798C20.3831 30.8159 20.679 29.9566 21.142 29.1421C21.2862 28.8806 21.4607 28.634 21.6504 28.4023C21.7187 28.3127 21.8705 28.223 21.9616 28.2454C22.0754 28.2678 22.2272 28.3949 22.25 28.492C22.599 30.2331 23.6994 31.5557 24.7619 32.9007C25.1565 33.4013 25.5511 33.8945 25.9609 34.4026Z" fill="url(#paint0_linear_385_1174)" stroke="url(#paint1_linear_385_1174)" stroke-miterlimit="10"/>
<path d="M25.2096 37.8921C25.2703 37.9445 25.3159 37.9818 25.3614 38.0192C26.3707 38.7664 26.1431 39.0055 25.9306 40.0442C25.8774 40.3281 25.6877 40.216 25.5359 40.1189C24.4431 39.409 23.3276 38.7216 22.2651 37.9669C21.529 37.4438 20.8004 36.8684 20.1857 36.2109C19.3889 35.3516 19.2068 34.2681 19.4876 33.1323C19.5483 32.8857 19.738 32.6765 19.8746 32.4448C19.9657 32.5121 19.996 32.5195 20.0036 32.5345C20.3299 33.8347 21.2937 34.679 22.2499 35.5085C23.2137 36.3304 24.2155 37.0926 25.2096 37.8921Z" fill="url(#paint2_linear_385_1174)" stroke="url(#paint3_linear_385_1174)" stroke-miterlimit="10"/>
<path d="M22.8342 41.5387C21.6048 40.9558 20.5652 40.1936 19.8518 39.0579C19.5331 38.5572 19.3282 38.0117 19.4496 37.399C19.4648 37.3243 19.4951 37.2421 19.5255 37.1674C19.7531 36.592 19.8822 36.5696 20.3223 36.9955C21.5745 38.206 23.0391 39.1326 24.519 40.0442C24.8984 40.2833 25.2931 40.515 25.6497 40.784C25.7712 40.8736 25.8774 41.0679 25.8926 41.2248C25.9305 41.576 25.9078 41.9347 25.9002 42.2859C25.8926 42.6446 25.8167 42.7118 25.4828 42.5848C24.6025 42.2411 23.7297 41.8899 22.8342 41.5387Z" fill="url(#paint4_linear_385_1174)" stroke="url(#paint5_linear_385_1174)" stroke-miterlimit="10"/>
<path d="M25.2324 44.4678C24.1017 44.2361 22.9861 44.0568 22.0071 43.459C21.2862 43.0182 20.7777 42.4503 20.8764 41.5386C20.9219 41.1351 21.0206 41.0679 21.3773 41.2622C22.6825 41.987 24.041 42.5997 25.4905 42.9808C25.8699 43.0779 26.0672 43.2722 26.1127 43.6533C26.1431 43.8924 26.2038 44.1241 26.2721 44.3557C26.3556 44.6247 26.219 44.6621 26.0065 44.6247C25.7561 44.5799 25.5056 44.5276 25.2324 44.4678Z" fill="url(#paint6_linear_385_1174)" stroke="url(#paint7_linear_385_1174)" stroke-miterlimit="10"/>
<path d="M29.9755 39.8499C29.9983 40.4551 30.0059 41.0455 30.0059 41.6657C28.9813 41.1575 27.9417 40.6345 27.2207 39.693C26.7047 39.0205 26.4922 38.2732 26.6667 37.4438C26.6895 37.3317 26.7654 37.2047 26.8564 37.1524C26.9096 37.1225 27.0689 37.2196 27.1296 37.3018C27.9341 38.3031 28.9965 39.013 29.9755 39.8499Z" fill="url(#paint8_linear_385_1174)" stroke="url(#paint9_linear_385_1174)" stroke-miterlimit="10"/>
<path d="M29.9755 37.3542C29.9983 38.0043 30.0059 38.6469 29.9983 39.3194C29.1256 38.6021 28.1086 38.0118 27.4105 37.0777C26.9551 36.4725 26.8109 35.8 27.0234 35.0677C27.0538 34.9631 27.1145 34.8659 27.198 34.6716C28.0252 35.7252 28.9358 36.592 29.9755 37.3542Z" fill="url(#paint10_linear_385_1174)" stroke="url(#paint11_linear_385_1174)" stroke-miterlimit="10"/>
<path d="M29.9755 42.1589C29.9983 42.4951 30.0059 42.8164 30.0059 43.1826C29.08 42.9958 28.1845 42.7118 27.4256 42.1514C26.6288 41.5685 26.1886 40.7989 26.3935 39.7827C26.4087 39.7079 26.4543 39.6482 26.5226 39.4838C27.456 40.6943 28.5943 41.5611 29.9755 42.1589Z" fill="url(#paint12_linear_385_1174)" stroke="url(#paint13_linear_385_1174)" stroke-miterlimit="10"/>
<path d="M25.369 44.8938C25.5132 44.9162 25.6271 44.9311 25.7409 44.9535C26.5529 45.0955 26.7502 45.3197 26.7958 46.2014C25.794 46.3733 24.8075 46.5078 23.8816 45.91C23.4946 45.6634 23.3276 45.2748 23.2669 44.8414C23.229 44.5949 23.3124 44.4678 23.6008 44.5351C24.1776 44.6696 24.7619 44.7742 25.369 44.8938Z" fill="url(#paint14_linear_385_1174)" stroke="url(#paint15_linear_385_1174)" stroke-miterlimit="10"/>
<path d="M29.9679 43.5787C29.9982 43.8701 29.9982 44.1466 29.9982 44.4604C29.171 44.2587 28.3362 44.0644 27.5318 43.7954C27.0537 43.6385 26.6287 43.3321 26.4238 42.8613C26.31 42.6148 26.2872 42.3159 26.2872 42.0394C26.2872 41.8825 26.4314 41.7106 26.6136 41.9049C27.5166 42.8688 28.7157 43.235 29.9679 43.5787Z" fill="url(#paint16_linear_385_1174)" stroke="url(#paint17_linear_385_1174)" stroke-miterlimit="10"/>
<path d="M29.9679 44.8116C29.9983 45.0731 30.0059 45.3272 29.9983 45.6111C29.3077 45.5738 28.6095 45.5439 27.9341 45.4243C27.2056 45.2898 26.7123 44.849 26.5833 44.0943C26.5681 43.9896 26.606 43.885 26.6136 43.7729C26.7199 43.7954 26.8413 43.7804 26.9248 43.8327C27.8582 44.3782 28.8827 44.6323 29.9679 44.8116Z" fill="url(#paint18_linear_385_1174)" stroke="url(#paint19_linear_385_1174)" stroke-miterlimit="10"/>
<path d="M29.9678 45.9175C30.0058 46.1715 30.0058 46.4181 30.0058 46.6871C29.2924 46.8515 28.5791 46.8964 27.8733 46.6946C27.4711 46.5825 27.0992 46.0968 27.084 45.7008C27.0764 45.4617 27.2206 45.4766 27.38 45.5214C27.7443 45.6186 28.1085 45.7456 28.488 45.7979C28.9661 45.8726 29.4518 45.8801 29.9678 45.9175Z" fill="url(#paint20_linear_385_1174)" stroke="url(#paint21_linear_385_1174)" stroke-miterlimit="10"/>
<path d="M25.4145 46.6422C25.885 46.6273 26.3251 46.5974 26.7653 46.6123C26.8867 46.6123 27.0537 46.702 27.1296 46.7992C27.2662 46.9785 27.3496 47.1952 27.4862 47.4343C26.7501 47.6361 26.0595 47.8602 25.331 47.6435C24.9819 47.5389 24.7315 47.3073 24.5797 46.9785C24.5114 46.8216 24.519 46.7095 24.7315 46.6945C24.9439 46.6721 25.164 46.6572 25.4145 46.6422Z" fill="url(#paint22_linear_385_1174)" stroke="url(#paint23_linear_385_1174)" stroke-miterlimit="10"/>
<path d="M27.7595 48.6C27.4787 48.6747 27.2206 48.7793 26.9626 48.7943C26.735 48.8017 26.4693 48.7569 26.272 48.6523C26.0975 48.5626 25.9912 48.3534 25.847 48.1965C26.0216 48.1292 26.1961 48.0545 26.3783 48.0097C26.6363 47.9499 26.9095 47.9424 27.1599 47.8602C27.6987 47.6734 28.0706 47.8677 28.3969 48.3385C28.192 48.4206 27.9871 48.5028 27.7595 48.6Z" fill="url(#paint24_linear_385_1174)" stroke="url(#paint25_linear_385_1174)" stroke-miterlimit="10"/>
<path d="M29.9679 46.9711C29.9982 47.1728 30.0058 47.382 29.9982 47.6212C29.5884 47.6959 29.1862 47.7706 28.784 47.7856C28.4653 47.8005 28.1541 47.6959 27.9796 47.397C27.8354 47.1504 27.9113 47.0458 28.1996 47.0383C28.784 47.0234 29.3608 46.9935 29.9679 46.9711Z" fill="url(#paint26_linear_385_1174)" stroke="url(#paint27_linear_385_1174)" stroke-miterlimit="10"/>
<path d="M28.2073 49.5266C27.7595 49.6387 27.418 49.5416 27.0765 49.1156C27.6685 48.9288 28.1845 48.7196 28.7233 48.615C28.9206 48.5776 29.1635 48.8018 29.3836 48.8989C29.3836 48.9363 29.3836 48.9811 29.3836 49.0185C29.0041 49.1904 28.6247 49.3548 28.2073 49.5266Z" fill="url(#paint28_linear_385_1174)" stroke="url(#paint29_linear_385_1174)" stroke-miterlimit="10"/>
<path d="M29.9679 49.123C29.9982 49.3024 29.9982 49.4742 29.9982 49.676C29.6112 49.8105 29.2242 49.9824 28.7992 49.6611C29.1711 49.407 29.4822 49.1305 29.9679 49.123Z" fill="url(#paint30_linear_385_1174)" stroke="white" stroke-miterlimit="10"/>
<path d="M29.9679 47.8752C29.9983 48.0471 30.0059 48.2264 29.9983 48.4282C29.5961 48.4954 29.209 48.4954 28.8827 48.0322C29.2773 47.9724 29.6112 47.9276 29.9679 47.8752Z" fill="url(#paint31_linear_385_1174)" stroke="white" stroke-miterlimit="10"/>
<path opacity="0.98" d="M29.9755 42.1664C29.9755 42.0319 29.9831 41.8974 29.9831 41.7031C29.9831 41.053 29.9755 40.4627 29.9755 39.8724C29.9755 39.7229 29.9831 39.5735 29.9831 39.3568C29.9831 38.6544 29.9755 38.0118 29.9755 37.3691C29.9831 35.5384 29.9831 33.7077 29.9906 31.877C29.9906 31.7275 29.9906 31.5856 29.9906 31.4137C30.0969 31.4062 30.1804 31.3913 30.2714 31.3913C33.0414 31.3913 35.8038 31.3763 38.5737 31.3913C41.4272 31.4062 43.9543 33.222 44.7284 35.8C45.7225 39.1102 43.9695 41.9796 41.3589 43.2424C41.283 43.2798 41.2147 43.3096 41.1084 43.3619C42.6718 46.0072 44.2199 48.6449 45.806 51.3274C45.6618 51.3424 45.5631 51.3573 45.4721 51.3573C44.44 51.3573 43.4003 51.3424 42.3682 51.3499C42.1102 51.3499 41.9736 51.2602 41.8522 51.0435C40.5544 48.757 39.2416 46.4779 37.9514 44.1914C37.8073 43.9373 37.6555 43.8402 37.3595 43.8402C35.9631 43.8551 34.5744 43.8476 33.1325 43.8476V51.3125H29.9906C29.9906 50.7894 29.9906 50.2813 29.9906 49.706C29.9831 49.4743 29.9831 49.295 29.9831 49.1231C29.9906 48.9214 29.9906 48.7196 29.9906 48.4506C29.9831 48.2115 29.9831 48.0396 29.9831 47.8603C29.9906 47.808 29.9906 47.7482 29.9906 47.6361C29.9831 47.3746 29.9831 47.1654 29.9831 46.9561C29.9831 46.8964 29.9906 46.8291 29.9906 46.7095C29.9906 46.4032 29.9831 46.1566 29.9831 45.91C29.9906 45.8428 29.9906 45.768 29.9906 45.6335C29.9831 45.3122 29.9831 45.0582 29.9831 44.8041C29.9831 44.7144 29.9906 44.6248 29.9906 44.4753C29.9906 44.1316 29.9831 43.8551 29.9831 43.5712C29.9831 43.4666 29.9906 43.3619 29.9906 43.1976C29.9831 42.8165 29.9755 42.4952 29.9755 42.1664ZM33.9369 40.8662C35.5837 40.8662 37.2381 40.8587 38.8849 40.8662C39.9701 40.8737 40.7669 40.4253 41.3285 39.5062C42.1633 38.1463 41.9205 36.2632 40.7593 35.2694C39.9625 34.5969 39.0215 34.3354 37.9894 34.3354C36.4792 34.3354 34.969 34.3354 33.4588 34.3354C33.3601 34.3354 33.2539 34.3429 33.1476 34.3503V40.8587C33.4057 40.8662 33.6333 40.8662 33.9369 40.8662Z" fill="#1DA1F2" stroke="white" stroke-miterlimit="10"/>
<defs>
<linearGradient id="paint0_linear_385_1174" x1="20.4357" y1="33.033" x2="26.5117" y2="33.033" gradientUnits="userSpaceOnUse">
<stop stop-color="#F73786"/>
<stop offset="0.5547" stop-color="#8B75C1"/>
<stop offset="1" stop-color="#30A9F3"/>
</linearGradient>
<linearGradient id="paint1_linear_385_1174" x1="20.3978" y1="33.033" x2="26.5496" y2="33.033" gradientUnits="userSpaceOnUse">
<stop offset="0.6615" stop-color="#F73786"/>
<stop offset="0.9883" stop-color="#30A9F3"/>
</linearGradient>
<linearGradient id="paint2_linear_385_1174" x1="19.3735" y1="36.3328" x2="26.1159" y2="36.3328" gradientUnits="userSpaceOnUse">
<stop stop-color="#F73786"/>
<stop offset="0.5547" stop-color="#8B75C1"/>
<stop offset="1" stop-color="#30A9F3"/>
</linearGradient>
<linearGradient id="paint3_linear_385_1174" x1="19.3356" y1="36.3243" x2="26.1539" y2="36.3243" gradientUnits="userSpaceOnUse">
<stop offset="0.6615" stop-color="#F73786"/>
<stop offset="0.9883" stop-color="#30A9F3"/>
</linearGradient>
<linearGradient id="paint4_linear_385_1174" x1="19.4128" y1="39.6671" x2="25.9083" y2="39.6671" gradientUnits="userSpaceOnUse">
<stop stop-color="#F73786"/>
<stop offset="0.5547" stop-color="#8B75C1"/>
<stop offset="1" stop-color="#30A9F3"/>
</linearGradient>
<linearGradient id="paint5_linear_385_1174" x1="19.3748" y1="39.6671" x2="25.9462" y2="39.6671" gradientUnits="userSpaceOnUse">
<stop offset="0.6615" stop-color="#F73786"/>
<stop offset="0.9883" stop-color="#30A9F3"/>
</linearGradient>
<linearGradient id="paint6_linear_385_1174" x1="20.8622" y1="42.8972" x2="26.297" y2="42.8972" gradientUnits="userSpaceOnUse">
<stop stop-color="#F73786"/>
<stop offset="0.5547" stop-color="#8B75C1"/>
<stop offset="1" stop-color="#30A9F3"/>
</linearGradient>
<linearGradient id="paint7_linear_385_1174" x1="20.8242" y1="42.8972" x2="26.3349" y2="42.8972" gradientUnits="userSpaceOnUse">
<stop offset="0.6615" stop-color="#F73786"/>
<stop offset="0.9883" stop-color="#30A9F3"/>
</linearGradient>
<linearGradient id="paint8_linear_385_1174" x1="26.6017" y1="39.4124" x2="30.0021" y2="39.4124" gradientUnits="userSpaceOnUse">
<stop stop-color="#F73786"/>
<stop offset="0.5547" stop-color="#8B75C1"/>
<stop offset="1" stop-color="#30A9F3"/>
</linearGradient>
<linearGradient id="paint9_linear_385_1174" x1="26.5638" y1="39.4241" x2="30.04" y2="39.4241" gradientUnits="userSpaceOnUse">
<stop offset="0.6615" stop-color="#F73786"/>
<stop offset="0.9883" stop-color="#30A9F3"/>
</linearGradient>
<linearGradient id="paint10_linear_385_1174" x1="26.9308" y1="36.9983" x2="30.0021" y2="36.9983" gradientUnits="userSpaceOnUse">
<stop stop-color="#F73786"/>
<stop offset="0.5547" stop-color="#8B75C1"/>
<stop offset="1" stop-color="#30A9F3"/>
</linearGradient>
<linearGradient id="paint11_linear_385_1174" x1="26.8929" y1="37.0017" x2="30.04" y2="37.0017" gradientUnits="userSpaceOnUse">
<stop offset="0.6615" stop-color="#F73786"/>
<stop offset="0.9883" stop-color="#30A9F3"/>
</linearGradient>
<linearGradient id="paint12_linear_385_1174" x1="26.3358" y1="41.3258" x2="30.0021" y2="41.3258" gradientUnits="userSpaceOnUse">
<stop stop-color="#F73786"/>
<stop offset="0.5547" stop-color="#8B75C1"/>
<stop offset="1" stop-color="#30A9F3"/>
</linearGradient>
<linearGradient id="paint13_linear_385_1174" x1="26.2979" y1="41.3117" x2="30.1538" y2="41.3117" gradientUnits="userSpaceOnUse">
<stop offset="0.6615" stop-color="#F73786"/>
<stop offset="0.9883" stop-color="#30A9F3"/>
</linearGradient>
<linearGradient id="paint14_linear_385_1174" x1="23.259" y1="45.4343" x2="26.7977" y2="45.4343" gradientUnits="userSpaceOnUse">
<stop stop-color="#F73786"/>
<stop offset="0.5547" stop-color="#8B75C1"/>
<stop offset="1" stop-color="#30A9F3"/>
</linearGradient>
<linearGradient id="paint15_linear_385_1174" x1="23.221" y1="45.4343" x2="26.8374" y2="45.4343" gradientUnits="userSpaceOnUse">
<stop offset="0.6615" stop-color="#F73786"/>
<stop offset="0.9883" stop-color="#30A9F3"/>
</linearGradient>
<linearGradient id="paint16_linear_385_1174" x1="26.2869" y1="43.1339" x2="30.0015" y2="43.1339" gradientUnits="userSpaceOnUse">
<stop stop-color="#F73786"/>
<stop offset="0.5547" stop-color="#8B75C1"/>
<stop offset="1" stop-color="#30A9F3"/>
</linearGradient>
<linearGradient id="paint17_linear_385_1174" x1="26.249" y1="43.1389" x2="30.0395" y2="43.1389" gradientUnits="userSpaceOnUse">
<stop offset="0.6615" stop-color="#F73786"/>
<stop offset="0.9883" stop-color="#30A9F3"/>
</linearGradient>
<linearGradient id="paint18_linear_385_1174" x1="26.5769" y1="44.6903" x2="30.0016" y2="44.6903" gradientUnits="userSpaceOnUse">
<stop stop-color="#F73786"/>
<stop offset="0.5547" stop-color="#8B75C1"/>
<stop offset="1" stop-color="#30A9F3"/>
</linearGradient>
<linearGradient id="paint19_linear_385_1174" x1="26.5389" y1="44.6881" x2="30.0395" y2="44.6881" gradientUnits="userSpaceOnUse">
<stop offset="0.6615" stop-color="#F73786"/>
<stop offset="0.9883" stop-color="#30A9F3"/>
</linearGradient>
<linearGradient id="paint20_linear_385_1174" x1="27.081" y1="46.1648" x2="30.0022" y2="46.1648" gradientUnits="userSpaceOnUse">
<stop stop-color="#F73786"/>
<stop offset="0.5547" stop-color="#8B75C1"/>
<stop offset="1" stop-color="#30A9F3"/>
</linearGradient>
<linearGradient id="paint21_linear_385_1174" x1="27.043" y1="46.1648" x2="30.0402" y2="46.1648" gradientUnits="userSpaceOnUse">
<stop offset="0.6615" stop-color="#F73786"/>
<stop offset="0.9883" stop-color="#30A9F3"/>
</linearGradient>
<linearGradient id="paint22_linear_385_1174" x1="24.5402" y1="47.1668" x2="27.4875" y2="47.1668" gradientUnits="userSpaceOnUse">
<stop stop-color="#F73786"/>
<stop offset="0.5547" stop-color="#8B75C1"/>
<stop offset="1" stop-color="#30A9F3"/>
</linearGradient>
<linearGradient id="paint23_linear_385_1174" x1="24.5022" y1="47.1668" x2="27.5432" y2="47.1668" gradientUnits="userSpaceOnUse">
<stop offset="0.6615" stop-color="#F73786"/>
<stop offset="0.9883" stop-color="#30A9F3"/>
</linearGradient>
<linearGradient id="paint24_linear_385_1174" x1="25.8483" y1="48.2929" x2="28.3959" y2="48.2929" gradientUnits="userSpaceOnUse">
<stop stop-color="#F73786"/>
<stop offset="0.5547" stop-color="#8B75C1"/>
<stop offset="1" stop-color="#30A9F3"/>
</linearGradient>
<linearGradient id="paint25_linear_385_1174" x1="25.7833" y1="48.2929" x2="28.453" y2="48.2929" gradientUnits="userSpaceOnUse">
<stop offset="0.6615" stop-color="#F73786"/>
<stop offset="0.9883" stop-color="#30A9F3"/>
</linearGradient>
<linearGradient id="paint26_linear_385_1174" x1="27.916" y1="47.3801" x2="30.002" y2="47.3801" gradientUnits="userSpaceOnUse">
<stop stop-color="#F73786"/>
<stop offset="0.5547" stop-color="#8B75C1"/>
<stop offset="1" stop-color="#30A9F3"/>
</linearGradient>
<linearGradient id="paint27_linear_385_1174" x1="27.878" y1="47.3801" x2="30.04" y2="47.3801" gradientUnits="userSpaceOnUse">
<stop offset="0.6615" stop-color="#F73786"/>
<stop offset="0.9883" stop-color="#30A9F3"/>
</linearGradient>
<linearGradient id="paint28_linear_385_1174" x1="27.0808" y1="49.0946" x2="29.3939" y2="49.0946" gradientUnits="userSpaceOnUse">
<stop stop-color="#F73786"/>
<stop offset="0.5547" stop-color="#8B75C1"/>
<stop offset="1" stop-color="#30A9F3"/>
</linearGradient>
<linearGradient id="paint29_linear_385_1174" x1="27.0173" y1="49.0946" x2="29.4319" y2="49.0946" gradientUnits="userSpaceOnUse">
<stop offset="0.6615" stop-color="#F73786"/>
<stop offset="0.9883" stop-color="#30A9F3"/>
</linearGradient>
<linearGradient id="paint30_linear_385_1174" x1="28.8004" y1="49.4869" x2="30.0013" y2="49.4869" gradientUnits="userSpaceOnUse">
<stop stop-color="#F73786"/>
<stop offset="0.5547" stop-color="#8B75C1"/>
<stop offset="1" stop-color="#30A9F3"/>
</linearGradient>
<linearGradient id="paint31_linear_385_1174" x1="28.8892" y1="48.1676" x2="30.0013" y2="48.1676" gradientUnits="userSpaceOnUse">
<stop stop-color="#F73786"/>
<stop offset="0.5547" stop-color="#8B75C1"/>
<stop offset="1" stop-color="#30A9F3"/>
</linearGradient>
</defs>
</svg>
